<?xml version="1.0" encoding="UTF-8" standalone="no"?>
<!-- Created with Inkscape (http://www.inkscape.org/) -->

<svg
   xmlns:dc="http://purl.org/dc/elements/1.1/"
   xmlns:cc="http://creativecommons.org/ns#"
   xmlns:rdf="http://www.w3.org/1999/02/22-rdf-syntax-ns#"
   xmlns:svg="http://www.w3.org/2000/svg"
   xmlns="http://www.w3.org/2000/svg"
   xmlns:sodipodi="http://sodipodi.sourceforge.net/DTD/sodipodi-0.dtd"
   xmlns:inkscape="http://www.inkscape.org/namespaces/inkscape"
   width="508.60477mm"
   height="47.770817mm"
   viewBox="0 0 508.60477 47.770816"
   version="1.1"
   id="svg8"
   sodipodi:docname="logo.svg"
   inkscape:version="0.92.2 (5c3e80d, 2017-08-06)">
  <defs
     id="defs2">
    <clipPath
       clipPathUnits="userSpaceOnUse"
       id="clipPath5845">
      <rect
         style="fill:#000000;stroke-width:0.26458332"
         id="rect5847"
         width="67.050034"
         height="69.364868"
         x="-113.28358"
         y="234.47365" />
    </clipPath>
    <clipPath
       clipPathUnits="userSpaceOnUse"
       id="clipPath154">
      <rect
         style="fill:#ffff00;stroke-width:0.86952013"
         id="rect156"
         width="508.60501"
         height="72.319"
         x="-114.75381"
         y="232.87003" />
    </clipPath>
  </defs>
  <sodipodi:namedview
     id="base"
     pagecolor="#ffffff"
     bordercolor="#666666"
     borderopacity="1.0"
     inkscape:pageopacity="0.0"
     inkscape:pageshadow="2"
     inkscape:zoom="0.49497475"
     inkscape:cx="1205.2523"
     inkscape:cy="419.59565"
     inkscape:document-units="mm"
     inkscape:current-layer="layer1"
     showgrid="false"
     fit-margin-top="0"
     fit-margin-left="0"
     fit-margin-right="0"
     fit-margin-bottom="0"
     inkscape:window-width="1920"
     inkscape:window-height="1017"
     inkscape:window-x="-8"
     inkscape:window-y="-8"
     inkscape:window-maximized="1" />
  <metadata
     id="metadata5">
    <rdf:RDF>
      <cc:Work
         rdf:about="">
        <dc:format>image/svg+xml</dc:format>
        <dc:type
           rdf:resource="http://purl.org/dc/dcmitype/StillImage" />
        <dc:title></dc:title>
      </cc:Work>
    </rdf:RDF>
  </metadata>
  <g
     inkscape:label="Capa 1"
     inkscape:groupmode="layer"
     id="layer1"
     transform="translate(114.75357,-229.38451)">
    <text
       xml:space="preserve"
       style="font-style:normal;font-weight:normal;font-size:10.58333302px;line-height:1.25;font-family:sans-serif;letter-spacing:0px;word-spacing:0px;fill:#000000;fill-opacity:1;stroke:none;stroke-width:0.26458332"
       x="66.675003"
       y="192.42657"
       id="text561"><tspan
         sodipodi:role="line"
         id="tspan559"
         x="66.675003"
         y="202.08208"
         style="stroke-width:0.26458332" /></text>
    <g
       id="g150"
       clip-path="url(#clipPath154)"
       transform="matrix(1,0,0,0.66055694,0,75.560597)">
      <rect
         y="232.87003"
         x="-114.75357"
         height="72.319443"
         width="508.60477"
         id="rect609"
         style="fill:#000000;stroke-width:0.26458332" />
      <g
         clip-path="url(#clipPath5845)"
         transform="matrix(1.0899577,0,0,1.0952136,8.9639768,-25.001913)"
         id="g5823">
        <path
           inkscape:connector-curvature="0"
           id="path5839"
           d="m -114.75357,269.02974 v -36.15971 h 34.830506 34.830505 v 36.15971 36.15972 h -34.830505 -34.830506 z"
           style="fill:#fd7700;stroke-width:0.13835824" />
        <path
           inkscape:connector-curvature="0"
           id="path5837"
           d="m -114.75357,269.02974 v -36.15971 h 34.830506 34.830505 v 36.15971 36.15972 h -34.830505 -34.830506 z m 28.029117,31.24549 c 0.03966,-0.0666 0.136671,-1.12284 0.215585,-2.34717 0.07891,-1.22432 0.203998,-2.48616 0.277968,-2.80408 0.07397,-0.31791 0.197902,-1.30756 0.275408,-2.19922 0.302352,-3.47842 0.377477,-4.21137 0.58519,-5.70943 0.340279,-2.45414 0.395454,-2.55225 1.987066,-3.53348 1.239578,-0.76421 2.073634,-1.25962 2.120634,-1.25962 0.10984,0 -0.348199,-1.66066 -0.511567,-1.85473 -0.632228,-0.75103 -1.036017,-2.65429 -0.928116,-4.37467 0.06504,-1.03706 0.117555,-1.21269 0.516791,-1.72845 0.244415,-0.31574 0.50673,-0.75973 0.582922,-0.98664 0.279249,-0.83162 1.639778,-0.7393 2.743944,0.18621 0.935355,0.78401 1.264599,1.49424 1.384307,2.98617 0.09004,1.1221 0.07525,1.22849 -0.239297,1.72195 -0.542435,0.85095 -0.658299,2.85188 -0.16514,2.85188 0.09949,0 0.289655,0.19114 0.42258,0.42475 0.170291,0.29928 0.739145,0.7053 1.925744,1.3745 0.926235,0.52236 1.766419,1.07871 1.867077,1.23634 0.100658,0.15764 0.222448,0.7603 0.270644,1.33925 0.0482,0.57896 0.210059,1.59187 0.359696,2.25092 0.216875,0.9552 0.281351,1.81311 0.317845,4.22921 0.04758,3.14976 -0.09055,4.74056 -0.61537,7.08708 l -0.245063,1.0957 0.492639,-0.0909 c 1.225894,-0.22621 4.338384,-1.42105 6.236502,-2.3941 6.31141,-3.23547 11.022709,-8.12864 14.084427,-14.62812 1.507776,-3.20073 2.303693,-5.87685 2.857472,-9.60768 0.321387,-2.1652 0.319457,-6.59442 -0.0039,-8.95182 -0.952547,-6.94447 -3.952451,-13.19927 -8.690856,-18.12043 -4.693239,-4.87425 -10.561632,-7.9611 -17.186948,-9.04056 -2.178155,-0.35489 -7.18825,-0.35342 -9.296873,0.003 -3.528396,0.59594 -6.133904,1.46792 -9.205689,3.08084 -6.080109,3.19253 -10.575259,7.85414 -13.633919,14.13878 -2.13687,4.39063 -3.0779,8.24172 -3.2553,13.322 -0.28042,8.03078 2.25851,15.66366 7.27824,21.88085 3.79329,4.69819 9.670617,8.55662 15.421882,10.12438 1.712719,0.46688 1.658183,0.45763 1.753472,0.29756 z m -7.320922,-19.75209 c -2.629898,-0.59218 -4.411427,-1.5623 -5.995555,-3.26484 -1.10669,-1.1894 -1.72835,-2.24246 -2.21617,-3.7541 -0.83367,-2.58328 -0.83544,-5.28482 -0.005,-7.96742 0.53935,-1.74279 1.2111,-2.88394 2.513725,-4.27023 2.062438,-2.19492 4.407577,-3.36473 7.740112,-3.86097 2.646512,-0.39408 7.513657,0.11118 8.229471,0.85431 0.23123,0.24006 0.257494,0.49622 0.257494,2.51137 0,1.23423 -0.03709,2.34439 -0.08242,2.46704 -0.111934,0.30283 -0.499415,0.28015 -1.156097,-0.0676 -1.506812,-0.79806 -4.954636,-1.15751 -6.773174,-0.70614 -1.069118,0.26536 -2.522147,1.09107 -3.250368,1.84708 -1.888574,1.96065 -2.32868,5.57066 -1.000128,8.20363 0.597943,1.18503 1.40424,1.96561 2.680106,2.59464 1.959511,0.96608 4.992248,0.98365 7.52282,0.0436 1.582727,-0.58796 1.793684,-0.63137 1.935838,-0.39834 0.0656,0.10754 0.120205,1.14884 0.121348,2.314 0.0025,2.5246 -0.02779,2.59633 -1.247976,2.95731 -1.950189,0.57695 -2.520342,0.65407 -5.267934,0.71261 -2.396921,0.0511 -2.95354,0.0211 -4.005848,-0.21589 z m 19.860811,-0.18027 c -0.231267,-0.18496 -8.250642,-21.79901 -8.250642,-22.23737 0,-0.13914 0.09666,-0.29149 0.214793,-0.33856 0.118136,-0.0471 1.450792,-0.0856 2.961458,-0.0856 1.98843,0 2.807937,0.0487 2.968617,0.17622 0.127167,0.10096 1.299724,3.51748 2.745706,8.00025 1.388063,4.30322 2.555803,7.91734 2.594977,8.0314 0.03917,0.11405 1.248611,-3.42774 2.687639,-7.87063 1.439028,-4.4429 2.703716,-8.13535 2.810421,-8.20546 0.214405,-0.14086 5.407991,-0.1826 5.750349,-0.0462 0.118138,0.0471 0.214794,0.19753 0.214794,0.33437 0,0.44695 -8.140081,22.06046 -8.376616,22.24156 -0.167401,0.12817 -1.030529,0.17622 -3.165657,0.17622 -2.140364,0 -2.995186,-0.0477 -3.155839,-0.17622 z m -4.567743,2.22814 c 0.210789,-0.46092 0.353493,-0.86893 0.317119,-0.90669 -0.03638,-0.0378 -0.263814,0.12311 -0.505423,0.3575 -0.241608,0.23439 -0.637883,0.56742 -0.88061,0.74007 -0.521698,0.37109 -0.527165,0.40951 -0.152173,1.06933 l 0.28915,0.50877 0.274341,-0.46547 c 0.150887,-0.25601 0.446805,-0.84259 0.657596,-1.30351 z m -2.053402,0.41511 c 0,-0.10715 -0.06111,-0.23402 -0.135791,-0.28194 -0.07732,-0.0496 -0.135792,0.0718 -0.135792,0.28194 0,0.21015 0.05847,0.33156 0.135792,0.28195 0.07469,-0.0479 0.135791,-0.17479 0.135791,-0.28195 z"
           style="fill:#d46400;stroke-width:0.13835824" />
        <path
           inkscape:connector-curvature="0"
           id="path5835"
           d="m -114.75357,269.02974 v -36.15971 h 34.830506 34.830505 v 36.15971 36.15972 h -34.830505 -34.830506 z m 28.168208,31.1904 c 0.0355,-0.17446 0.129053,-1.25612 0.207887,-2.4037 0.07883,-1.14758 0.202285,-2.5115 0.274334,-3.03093 0.122495,-0.88311 0.483768,-4.18987 0.596038,-5.45558 0.154135,-1.7377 0.539333,-4.00192 0.742575,-4.36491 0.136278,-0.24339 0.685179,-0.69625 1.315534,-1.08535 0.594925,-0.36724 1.277002,-0.80366 1.515725,-0.96984 0.513571,-0.35748 0.720186,-0.27177 0.720186,0.29876 0,0.37243 0.03576,0.40797 0.332645,0.33061 0.335536,-0.0874 0.878545,0.31766 1.064574,0.79418 0.118634,0.30389 0.41548,-0.1301 1.138467,-1.66445 0.33795,-0.7172 0.686877,-1.304 0.775395,-1.304 0.08852,0 0.266257,0.18509 0.394977,0.41131 0.161704,0.28419 0.748841,0.69916 1.899767,1.34269 0.916152,0.51227 1.746112,1.06501 1.844355,1.22833 0.09824,0.16331 0.229585,0.84372 0.291871,1.51201 0.06228,0.6683 0.234398,1.75431 0.38247,2.41336 0.235668,1.04892 0.265231,1.62877 0.237182,4.65213 -0.02904,3.13006 -0.06623,3.62294 -0.396713,5.2575 -0.20057,0.992 -0.379047,1.88013 -0.396619,1.97363 -0.05508,0.29309 0.81064,0.11151 2.955466,-0.61991 11.350383,-3.87066 19.384408,-14.06203 20.992438,-26.62946 0.270415,-2.11341 0.207466,-6.19621 -0.131632,-8.53765 -1.003974,-6.93231 -3.965862,-13.04793 -8.703624,-17.97099 -4.76979,-4.95634 -10.587281,-8.00402 -17.389994,-9.11029 -2.16638,-0.3523 -6.927218,-0.35083 -9.02529,0.003 -3.470123,0.58487 -6.073548,1.43536 -9.098027,2.97215 -3.491374,1.77404 -6.024105,3.69677 -8.758545,6.6491 -2.34082,2.52733 -3.98027,4.99426 -5.50621,8.28537 -1.37854,2.97319 -2.22197,5.82922 -2.73198,9.25111 -0.33504,2.24789 -0.33579,7.05735 -0.001,9.27911 1.76697,11.74214 9.19992,21.30055 19.775221,25.42997 1.155792,0.45131 4.113718,1.35089 4.519168,1.3744 0.05459,0.003 0.128306,-0.13699 0.16381,-0.31144 z m 5.812369,-17.48072 c -0.332797,-0.36882 -0.575882,-0.97371 -0.575882,-1.433 0,-0.17716 -0.182421,-0.58354 -0.405381,-0.90308 -0.534587,-0.76614 -0.873368,-2.38629 -0.830663,-3.97249 0.02812,-1.04428 0.07907,-1.26634 0.396518,-1.72794 0.200341,-0.29131 0.49054,-0.76704 0.644886,-1.05718 0.31347,-0.58925 0.508169,-0.666 1.354939,-0.53418 0.710372,0.11059 1.871247,1.03336 2.239318,1.78002 0.1483,0.30083 0.28745,0.99855 0.344354,1.72665 0.09186,1.17536 0.08156,1.2427 -0.27108,1.77097 -0.31335,0.46942 -0.371673,0.71454 -0.401686,1.68818 -0.02748,0.8915 -0.09204,1.20485 -0.297087,1.44193 -0.261091,0.30188 -1.753827,1.53731 -1.857489,1.53731 -0.03,0 -0.183333,-0.14273 -0.340747,-0.31719 z m -13.408173,-2.36468 c -2.424901,-0.52676 -4.32463,-1.58395 -5.846324,-3.25345 -1.539,-1.68848 -2.35591,-3.55439 -2.64799,-6.04825 -0.4628,-3.95158 0.82276,-7.77378 3.442409,-10.23488 2.694662,-2.53157 5.946097,-3.57712 10.551458,-3.39299 2.112652,0.0845 4.442603,0.47442 4.830242,0.80841 0.287829,0.24799 0.285046,4.89836 -0.003,5.01311 -0.108373,0.0432 -0.590901,-0.0851 -1.072285,-0.28502 -1.433365,-0.59532 -2.601927,-0.81891 -4.298123,-0.8224 -1.797003,-0.004 -2.89453,0.24197 -4.137829,0.92621 -2.532765,1.39389 -3.793491,4.5003 -3.135127,7.72491 0.919105,4.50168 5.549332,6.34682 11.05515,4.40546 0.773214,-0.27264 1.491211,-0.46169 1.595549,-0.42013 0.151482,0.0603 0.189706,0.5303 0.189706,2.33233 0,2.63978 0.09032,2.48242 -1.697393,2.95727 -1.701756,0.45203 -2.810592,0.5697 -5.295866,0.56203 -1.715772,-0.005 -2.622228,-0.0753 -3.530577,-0.27261 z m 20.057511,-0.11648 c -0.235248,-0.15494 -8.189271,-21.72418 -8.143657,-22.08348 0.03435,-0.27055 0.151021,-0.28335 2.887413,-0.3166 1.568391,-0.0191 2.935336,0.0211 3.037656,0.0893 0.148233,0.0987 4.948519,14.59628 5.261132,15.88937 0.04501,0.18616 0.124441,0.33847 0.176524,0.33847 0.05208,0 1.269327,-3.62921 2.704987,-8.06491 1.435661,-4.43569 2.684928,-8.11485 2.776152,-8.1759 0.09122,-0.061 1.417738,-0.0954 2.947813,-0.0763 2.512829,0.0313 2.786319,0.0583 2.827071,0.27838 0.04411,0.23825 -7.897256,21.71737 -8.158118,22.06537 -0.152718,0.20373 -6.013823,0.25603 -6.316973,0.0564 z"
           style="fill:#ad5100;stroke-width:0.13835824" />
        <path
           inkscape:connector-curvature="0"
           id="path5833"
           d="m -114.75357,269.02974 v -36.15971 h 34.830506 34.830505 v 36.15971 36.15972 h -34.830505 -34.830506 z m 28.304295,30.55602 c 0.04798,-0.52337 0.141855,-1.72805 0.208607,-2.67708 0.06675,-0.94902 0.159092,-1.78886 0.205196,-1.86631 0.07795,-0.13094 0.185343,-1.19087 0.478797,-4.72562 0.157557,-1.89784 0.60721,-4.85017 0.806218,-5.29345 0.14172,-0.31568 2.711835,-2.08409 3.231843,-2.22373 0.117449,-0.0315 0.169739,0.15304 0.169739,0.59914 0,0.5869 0.147621,0.82602 0.325486,0.52725 0.14581,-0.24493 0.916326,0.008 1.066473,0.3502 0.0817,0.18615 0.214325,0.3157 0.294725,0.28788 0.0804,-0.0278 0.473931,-0.71143 0.874515,-1.51912 0.400587,-0.80769 0.801591,-1.48674 0.891121,-1.50899 0.08953,-0.0222 0.245374,0.11976 0.346318,0.31557 0.116406,0.22581 0.75644,0.67888 1.749889,1.23873 0.861494,0.48549 1.682107,0.98001 1.823584,1.09894 0.196641,0.16529 0.299116,0.56375 0.43506,1.69168 0.0978,0.8115 0.281309,1.93956 0.407784,2.50681 0.195453,0.8766 0.22049,1.59578 0.166867,4.7931 -0.05372,3.20289 -0.107035,3.96071 -0.358894,5.10099 -0.162693,0.73659 -0.332997,1.52369 -0.378453,1.74911 l -0.08265,0.40987 0.617462,-0.0879 c 2.050172,-0.29173 7.145829,-2.55818 9.632913,-4.28453 3.533094,-2.45242 6.746123,-5.76392 9.00009,-9.27592 1.11213,-1.73286 2.751644,-5.15535 3.380165,-7.05611 1.382602,-4.18123 1.998577,-8.69177 1.717214,-12.57446 -0.578962,-7.98942 -3.458386,-14.75193 -8.671358,-20.36525 -4.936455,-5.31557 -10.864501,-8.4794 -18.078236,-9.64846 -2.308281,-0.37408 -6.549706,-0.34504 -8.830532,0.0605 -3.673296,0.65305 -6.318296,1.54121 -9.384764,3.15129 -3.16096,1.65969 -5.492949,3.43827 -8.098754,6.17682 -2.43114,2.55499 -4.04698,4.88055 -5.58858,8.04326 -1.57311,3.22733 -2.52505,6.34731 -3.07541,10.0796 -0.33566,2.27634 -0.34401,6.56647 -0.017,8.74613 1.12579,7.50433 4.22289,13.77776 9.29648,18.83079 3.04091,3.02857 6.191539,5.14407 10.15046,6.81554 1.352829,0.57117 4.279626,1.46424 4.840762,1.47708 0.345926,0.008 0.362972,-0.0281 0.446883,-0.94334 z m 5.587741,-17.10386 c -0.222012,-0.27391 -0.351549,-0.60431 -0.351549,-0.89666 0,-0.25858 -0.146613,-0.6872 -0.332145,-0.97103 -0.182679,-0.27947 -0.394331,-0.62876 -0.470341,-0.7762 -0.272559,-0.52872 -0.530049,-2.37138 -0.491961,-3.52059 0.03502,-1.0565 0.07814,-1.22158 0.441964,-1.69168 0.22174,-0.28652 0.50359,-0.72263 0.626333,-0.96912 0.122745,-0.2465 0.339025,-0.48635 0.480624,-0.53301 0.461178,-0.15195 1.36821,0.16607 1.995422,0.69963 0.9821,0.83547 1.076482,1.05721 1.36444,3.20559 0.07861,0.58652 0.04195,0.74207 -0.299002,1.26877 -0.32969,0.50929 -0.396302,0.77126 -0.439403,1.72808 -0.04096,0.90922 -0.107448,1.19292 -0.343088,1.46384 -0.37663,0.43303 -1.573124,1.42612 -1.718217,1.42612 -0.06134,0 -0.269724,-0.19518 -0.463077,-0.43374 z m -13.528115,-2.22862 c -1.512964,-0.34187 -2.81046,-0.91785 -4.068948,-1.80627 -1.234569,-0.87154 -1.819583,-1.49549 -2.617293,-2.79151 -1.78324,-2.89718 -2.09179,-7.17578 -0.77995,-10.81577 0.37837,-1.0499 1.47027,-2.77473 2.30535,-3.64167 0.879885,-0.91346 2.692959,-2.12737 3.949369,-2.64421 1.92499,-0.79188 2.892242,-0.94296 6.036864,-0.94296 2.84295,0 4.373063,0.1644 5.329814,0.57265 l 0.441322,0.18831 v 2.47423 c 0,1.6187 -0.04882,2.47424 -0.141201,2.47424 -0.07766,0 -0.392072,-0.13287 -0.698692,-0.29527 -0.30662,-0.16239 -1.144396,-0.45086 -1.861722,-0.64103 -2.376595,-0.63007 -4.835657,-0.42839 -6.73128,0.55208 -1.035195,0.53543 -2.36077,1.90896 -2.819724,2.92174 -0.347804,0.7675 -0.783359,2.60949 -0.783359,3.31288 0,0.71092 0.43403,2.5312 0.771135,3.23406 0.461429,0.96207 1.708847,2.26828 2.634509,2.75867 2.31705,1.22752 5.549975,1.20218 8.558826,-0.0671 0.465711,-0.19646 0.897319,-0.3572 0.959129,-0.3572 0.06181,0 0.112379,1.03896 0.112379,2.3088 0,1.79707 -0.04176,2.34479 -0.188406,2.47114 -0.103624,0.0893 -0.791068,0.32771 -1.527654,0.52983 -1.224725,0.33608 -1.612126,0.37173 -4.530346,0.41687 -2.724973,0.0422 -3.360398,0.0111 -4.350122,-0.21253 z m 20.191381,-0.12187 c -0.12352,-0.2094 -8.101147,-21.91698 -8.101147,-22.04369 0,-0.0763 1.239803,-0.11416 3.008862,-0.0918 l 3.008862,0.0379 0.329327,0.98681 c 0.18113,0.54275 1.36511,4.18941 2.631067,8.10369 1.265958,3.91428 2.348461,7.16538 2.405566,7.22466 0.0571,0.0593 1.300046,-3.58737 2.762094,-8.10369 l 2.658271,-8.21147 2.93656,-0.038 c 1.645385,-0.0213 2.936562,0.017 2.936562,0.0871 0,0.1419 -7.971926,21.52738 -8.166545,21.90757 -0.114646,0.22396 -0.41304,0.2467 -3.2367,0.2467 -1.710726,0 -3.138477,-0.0476 -3.172779,-0.10573 z m -6.349394,5.61499 c -0.0074,-0.35512 -0.06041,-0.80427 -0.117702,-0.99811 -0.101589,-0.34371 -0.110237,-0.33847 -0.349318,0.21146 -0.270998,0.62335 -0.418325,2.1013 -0.270156,2.71012 0.09035,0.37126 0.112016,0.34856 0.422971,-0.44324 0.196552,-0.5005 0.322323,-1.093 0.314205,-1.48023 z"
           style="fill:#914400;stroke-width:0.13835824" />
        <path
           inkscape:connector-curvature="0"
           id="path5831"
           d="m -114.75357,269.02974 v -36.15971 h 34.830506 34.830505 v 36.15971 36.15972 h -34.830505 -34.830506 z m 28.198241,31.47235 c 0.05799,-0.0969 0.179166,-1.15951 0.269277,-2.36131 0.09011,-1.2018 0.227864,-2.66088 0.30612,-3.24239 0.121421,-0.90228 0.265213,-2.22422 0.613369,-5.63894 0.19001,-1.86364 0.517073,-3.88044 0.683456,-4.21447 0.175469,-0.35227 2.841175,-2.12934 3.19413,-2.12934 0.07706,0 0.140102,0.28633 0.140102,0.63629 0,0.34996 0.07001,0.75268 0.155581,0.89493 0.120559,0.20041 0.105276,0.4119 -0.0679,0.93952 -0.238985,0.72815 -0.274301,1.62185 -0.10013,2.53382 l 0.107695,0.56389 0.208901,-0.49341 c 0.618999,-1.46202 0.707483,-1.916 0.554069,-2.8427 -0.11631,-0.70257 -0.110609,-0.93416 0.02672,-1.0856 0.146041,-0.16104 0.212605,-0.13224 0.407286,0.17622 0.127993,0.2028 0.312364,0.36872 0.409714,0.36872 0.09735,0 0.502788,-0.69467 0.900975,-1.5437 0.398187,-0.84903 0.76635,-1.54685 0.818141,-1.55071 0.05179,-0.004 0.194612,0.16745 0.317377,0.38067 0.145955,0.2535 0.779124,0.69643 1.829404,1.27976 0.883406,0.49065 1.707223,1.00798 1.830702,1.14963 0.148312,0.17014 0.263923,0.68076 0.340634,1.50447 0.06387,0.6858 0.238344,1.78614 0.387723,2.44519 0.240595,1.0615 0.267119,1.60057 0.232368,4.72262 -0.03351,3.01067 -0.08282,3.7298 -0.338296,4.93407 -0.164487,0.77535 -0.33396,1.68387 -0.376608,2.01891 l -0.07754,0.60918 0.527968,-0.0973 c 1.25607,-0.23158 4.738274,-1.5477 6.546696,-2.47435 9.293952,-4.76232 15.454193,-13.63305 17.073495,-24.5858 0.317612,-2.14829 0.315718,-6.3304 -0.0039,-8.66987 -0.975121,-7.13686 -3.952131,-13.34533 -8.824345,-18.40292 -4.849192,-5.03369 -10.620498,-8.06828 -17.459894,-9.18051 -2.16638,-0.3523 -6.927218,-0.35084 -9.02529,0.003 -3.470123,0.58487 -6.073548,1.43535 -9.098027,2.97215 -3.28992,1.67167 -5.423253,3.23782 -8.055754,5.914 -2.73811,2.78355 -4.55826,5.38755 -6.19632,8.86478 -1.5149,3.21579 -2.34856,5.9791 -2.88045,9.54777 -0.33504,2.24789 -0.33579,7.05735 -0.001,9.27911 1.76912,11.75644 9.22855,21.34828 19.869028,25.54895 1.170826,0.46222 4.134233,1.37054 4.555723,1.39639 0.05161,0.003 0.141277,-0.0735 0.19927,-0.17046 z m 5.61234,-18.18559 c -0.147993,-0.25199 -0.269308,-0.65346 -0.269586,-0.89216 -2.72e-4,-0.24878 -0.180234,-0.71568 -0.421634,-1.09404 -0.580279,-0.90949 -0.915665,-2.61154 -0.810048,-4.11091 0.07241,-1.02789 0.124437,-1.18805 0.587412,-1.80821 0.279384,-0.37423 0.50797,-0.76951 0.50797,-0.87839 0,-0.257 0.565547,-0.40032 1.174691,-0.2977 0.662259,0.11157 1.856967,1.09786 2.121916,1.75175 0.487733,1.20371 0.497658,2.71429 0.02252,3.42795 -0.276674,0.41557 -0.342421,0.70344 -0.375717,1.64507 -0.02278,0.6443 -0.114231,1.23376 -0.209988,1.35355 -0.328549,0.41098 -1.607001,1.36125 -1.831371,1.36125 -0.124898,0 -0.348173,-0.20617 -0.496167,-0.45816 z m -13.238177,-2.07437 c -3.154198,-0.70676 -5.582393,-2.39032 -7.023914,-4.86993 -1.39062,-2.39205 -1.7998,-5.96279 -1.04183,-9.09144 0.90477,-3.7346 3.813397,-6.80687 7.590474,-8.01754 1.764616,-0.56561 2.45555,-0.65236 5.160075,-0.64788 2.557105,0.004 4.297651,0.20912 5.369039,0.63201 l 0.334201,0.13191 v 2.41648 2.41647 l -0.30553,-0.0805 c -0.168042,-0.0443 -0.833517,-0.27347 -1.478833,-0.50929 -1.966988,-0.7188 -4.548821,-0.83107 -6.431019,-0.27965 -0.956394,0.28018 -2.147782,1.02587 -2.917752,1.8262 -2.533297,2.6332 -2.504051,7.47033 0.06039,9.98823 2.133344,2.09463 5.614386,2.54258 9.396464,1.20917 0.758466,-0.26741 1.447423,-0.48619 1.531017,-0.48619 0.107422,0 0.14105,0.67175 0.114679,2.29082 l -0.03731,2.29082 -0.740425,0.25486 c -1.646428,0.56671 -2.495855,0.68247 -5.438086,0.74112 -2.521927,0.0503 -3.085949,0.0209 -4.141639,-0.21564 z m 20.060961,-0.17861 c -0.200679,-0.25365 -8.043418,-21.56766 -8.043418,-21.8594 0,-0.2194 0.251999,-0.2408 2.834994,-0.2408 2.115015,0 2.871071,0.0451 2.977055,0.17771 0.137207,0.17163 4.907927,14.78361 5.223576,15.999 0.08558,0.32953 0.188757,0.59748 0.22928,0.59544 0.04052,-0.002 1.259298,-3.6973 2.708389,-8.21171 1.449089,-4.5144 2.69397,-8.2873 2.766403,-8.38422 0.09771,-0.13074 0.84588,-0.17622 2.898793,-0.17622 2.545659,0 2.766919,0.0197 2.764852,0.2467 -0.0012,0.13569 -1.827454,5.13144 -4.058263,11.10167 l -4.056017,10.85496 -3.052085,0.0378 c -2.33658,0.029 -3.08525,-0.004 -3.193559,-0.14097 z"
           style="fill:#6e3300;stroke-width:0.13835824" />
        <path
           inkscape:connector-curvature="0"
           id="path5829"
           d="m -114.75357,269.02974 v -36.15971 h 34.830506 34.830505 v 36.15971 36.15972 h -34.830505 -34.830506 z m 28.299469,31.52951 c 0.03898,-0.0655 0.135714,-1.12807 0.21496,-2.36131 0.07925,-1.23324 0.208821,-2.55944 0.287947,-2.94712 0.134405,-0.65852 0.244284,-1.70551 0.525222,-5.00456 0.230978,-2.71239 0.622566,-4.96948 0.928693,-5.35296 0.125889,-0.15769 0.83531,-0.66891 1.576492,-1.13604 1.440461,-0.90786 1.6099,-0.91194 1.472889,-0.0354 -0.04171,0.26684 4.08e-4,0.62366 0.09532,0.80779 0.136784,0.26534 0.135499,0.43611 -0.0066,0.87338 -0.201772,0.62103 -0.198703,2.99099 0.0041,3.20158 0.08524,0.0885 0.185748,-0.008 0.284415,-0.27377 0.854557,-2.29976 0.831368,-2.1922 0.674786,-3.12967 -0.18231,-1.0915 -0.07002,-1.3496 0.349522,-0.80337 0.250259,0.32583 0.345135,0.36932 0.505073,0.23152 0.168042,-0.14479 1.243259,-2.19881 1.487419,-2.84146 0.06283,-0.16538 0.163821,-0.11606 0.463447,0.22634 0.210708,0.24078 1.104653,0.83864 1.986543,1.32857 0.881891,0.48993 1.654259,0.99074 1.716374,1.11291 0.06212,0.12218 0.179729,0.85652 0.261364,1.63187 0.08163,0.77536 0.21735,1.63177 0.301589,1.90314 0.217743,0.70145 0.380636,6.00739 0.235558,7.67287 -0.06705,0.76975 -0.272554,2.12289 -0.456671,3.00697 -0.184112,0.88408 -0.334753,1.67299 -0.334753,1.75312 0,0.47281 4.555914,-1.02874 7.147807,-2.35579 3.856203,-1.97438 7.494988,-4.92807 10.177826,-8.26159 6.449484,-8.0137 8.751583,-18.93118 6.149724,-29.16444 -1.368188,-5.38116 -4.152624,-10.39033 -7.9942,-14.38148 -3.930148,-4.08317 -8.796427,-6.989 -14.041222,-8.38452 -2.995467,-0.79703 -4.50614,-0.982 -8.02582,-0.98271 -3.238094,-6.6e-4 -4.579859,0.14497 -7.264843,0.78849 -4.12973,0.98978 -8.587083,3.24746 -12.144617,6.15131 -1.334333,1.08916 -4.070353,3.96865 -5.054503,5.31956 -2.79307,3.83393 -4.66684,7.82656 -5.662,12.06457 -0.65112,2.7729 -0.8283,4.4591 -0.8283,7.88319 0,3.48449 0.17807,5.11748 0.86668,7.94813 1.3562,5.57489 4.18606,10.76627 8.07345,14.81076 3.840942,3.99617 8.853158,7.00456 13.995748,8.40042 1.61734,0.439 1.920917,0.48381 2.030514,0.29971 z m 5.720717,-18.06145 c -0.132743,-0.15228 -0.294671,-0.57317 -0.359839,-0.93531 -0.06517,-0.36215 -0.300995,-0.94449 -0.524058,-1.29411 -0.223062,-0.34961 -0.442389,-0.86444 -0.48739,-1.14405 -0.045,-0.27961 -0.136704,-0.6987 -0.203782,-0.93131 -0.06708,-0.2326 -0.106276,-1.00223 -0.08711,-1.71029 0.03379,-1.24816 0.05027,-1.30791 0.54077,-1.96152 0.278254,-0.37078 0.505916,-0.75666 0.505916,-0.85752 0,-0.30709 0.499994,-0.48573 1.086847,-0.3883 0.643954,0.1069 1.801785,0.99753 2.115456,1.62725 0.113542,0.22794 0.275023,0.94659 0.358848,1.597 0.152255,1.18137 0.15202,1.18317 -0.235075,1.79041 -0.324168,0.50852 -0.397195,0.79212 -0.446921,1.73563 -0.04049,0.76818 -0.130123,1.21297 -0.281121,1.39494 -0.288854,0.3481 -1.506231,1.35404 -1.638641,1.35404 -0.0564,0 -0.21116,-0.12459 -0.343902,-0.27686 z m -13.372923,-2.27825 c -2.50092,-0.54484 -4.197528,-1.50463 -5.847755,-3.30813 -1.847948,-2.01958 -2.610678,-4.17812 -2.610678,-7.38827 0,-2.29802 0.26532,-3.51017 1.19955,-5.4802 0.52398,-1.10493 0.83016,-1.53366 1.868475,-2.61635 2.136876,-2.22819 4.302173,-3.28701 7.696312,-3.76343 2.201038,-0.30895 7.142678,0.15363 7.81324,0.73138 0.15323,0.13202 0.194042,0.63621 0.194042,2.39718 0,1.2265 -0.05446,2.26494 -0.121033,2.30766 -0.06657,0.0427 -0.400725,-0.0508 -0.742572,-0.20778 -1.350311,-0.6201 -2.639474,-0.86437 -4.568052,-0.86555 -1.417738,-8.5e-4 -2.039764,0.0612 -2.74473,0.27374 -2.439389,0.7356 -4.156611,2.60414 -4.660076,5.07071 -0.642508,3.14777 0.343232,6.04045 2.56685,7.53249 2.152822,1.44454 5.44295,1.62326 8.701351,0.47267 0.743189,-0.26243 1.400081,-0.44582 1.459758,-0.40753 0.05968,0.0383 0.108504,1.01598 0.108504,2.17265 0,2.46302 0.0796,2.33155 -1.697393,2.80356 -1.684763,0.44751 -2.807272,0.56975 -5.160075,0.56194 -1.622683,-0.005 -2.49745,-0.078 -3.455718,-0.28674 z m 20.118443,-0.10226 c -0.225655,-0.14862 -8.19642,-21.74366 -8.112023,-21.97775 0.07511,-0.20833 5.31026,-0.25448 5.621853,-0.0496 0.158348,0.10413 4.899453,14.45152 5.350339,16.19102 0.08541,0.32952 0.188454,0.59753 0.228977,0.59557 0.04052,-0.002 1.26525,-3.72175 2.721613,-8.26621 1.456364,-4.54445 2.728681,-8.34914 2.827372,-8.45485 0.139348,-0.14926 0.767082,-0.1922 2.809659,-0.1922 1.610358,0 2.662824,0.0548 2.714305,0.14124 0.08199,0.13774 -7.854473,21.60654 -8.116704,21.95636 -0.152657,0.20365 -5.742637,0.25577 -6.045391,0.0564 z"
           style="fill:#532700;stroke-width:0.13835824" />
        <path
           inkscape:connector-curvature="0"
           id="path5827"
           d="m -114.75357,269.02974 v -36.15971 h 34.830506 34.830505 v 36.15971 36.15972 h -34.830505 -34.830506 z m 28.221999,31.66606 c 0.125759,-0.0828 0.235943,-0.82841 0.360722,-2.4411 0.09881,-1.27707 0.244494,-2.79257 0.323742,-3.36778 0.29633,-2.15089 0.569059,-5.15774 0.487768,-5.37767 -0.04631,-0.12527 -0.02195,-0.34851 0.05412,-0.49607 0.07607,-0.14757 0.230667,-0.9994 0.343546,-1.89297 0.112879,-0.89357 0.276575,-1.78722 0.363769,-1.98589 0.101802,-0.23196 0.66745,-0.67206 1.580642,-1.22983 0.78216,-0.47773 1.442034,-0.84792 1.466386,-0.82263 0.09761,0.10133 0.09838,2.33886 9.51e-4,2.89127 -0.11935,0.677 0.03477,3.00437 0.198945,3.00437 0.06014,0 0.336419,-0.5868 0.613947,-1.30401 0.478901,-1.2376 0.500412,-1.36143 0.422427,-2.43179 l -0.08217,-1.12779 0.267219,0.32824 c 0.146969,0.18053 0.370951,0.30741 0.497734,0.28195 0.13564,-0.0272 0.514354,-0.62651 0.920155,-1.45603 0.379302,-0.77535 0.710177,-1.44145 0.735277,-1.48022 0.0251,-0.0388 0.164742,0.082 0.310314,0.26845 0.145573,0.18642 1.010814,0.76058 1.922758,1.2759 1.81614,1.02628 1.993536,1.23058 1.99672,2.29957 0.0011,0.36961 0.147093,1.38462 0.324427,2.25558 0.277109,1.36098 0.324204,1.99965 0.335068,4.544 0.01304,3.0511 -0.126929,4.55666 -0.632139,6.79999 -0.333632,1.48147 -0.269952,1.55822 1.017509,1.22638 8.572004,-2.20941 16.341111,-8.7938 20.282555,-17.18965 4.734053,-10.08422 4.172125,-21.74515 -1.505872,-31.24933 -2.423538,-4.05667 -6.304431,-8.05975 -10.259356,-10.58238 -9.02863,-5.75888 -20.454605,-6.30719 -29.922911,-1.43593 -3.382457,1.74021 -5.903722,3.64651 -8.583822,6.49014 -1.7051,1.80913 -2.47373,2.78405 -3.73063,4.73182 -1.15517,1.79011 -2.79927,5.17699 -3.44336,7.09336 -4.05688,12.07055 -0.908,25.48679 8.03831,34.24835 3.824738,3.74574 8.510754,6.4754 13.416791,7.81543 1.813449,0.49532 1.648567,0.46756 1.878458,0.31627 z m 5.687244,-18.47154 c -0.128131,-0.22518 -0.232965,-0.59494 -0.232965,-0.82167 0,-0.22673 -0.191569,-0.7125 -0.425707,-1.07947 -0.239003,-0.3746 -0.515059,-1.08076 -0.629434,-1.61012 -0.22664,-1.04896 -0.229819,-1.09051 -0.193063,-2.52394 0.023,-0.897 0.07198,-1.07186 0.414625,-1.48023 0.213699,-0.25468 0.490247,-0.66924 0.614549,-0.92123 0.188153,-0.38143 0.30354,-0.45816 0.688947,-0.45816 0.651878,0 1.061228,0.19043 1.702771,0.79214 0.694187,0.65109 0.832574,0.91349 0.994839,1.88635 0.208779,1.25174 0.154251,1.79394 -0.239779,2.38422 -0.29585,0.44321 -0.363089,0.71508 -0.390243,1.57791 -0.01804,0.57334 -0.09224,1.14785 -0.164875,1.27669 -0.188249,0.3339 -1.492485,1.38694 -1.717782,1.38694 -0.103905,0 -0.293753,-0.18424 -0.421883,-0.40943 z m -13.336839,-2.12311 c -4.804467,-1.07653 -7.658444,-4.21005 -8.222734,-9.02811 -0.50005,-4.2696 1.04154,-8.35668 4.031625,-10.68868 1.510011,-1.17767 3.218757,-1.95033 5.413232,-2.44775 1.265127,-0.28677 5.803323,-0.23966 7.325116,0.076 1.845334,0.38282 1.705015,0.15308 1.705015,2.79154 0,2.09668 -0.01786,2.26084 -0.237635,2.18424 -0.130699,-0.0456 -0.765621,-0.27474 -1.410937,-0.5093 -1.970835,-0.71636 -4.552487,-0.82771 -6.431019,-0.27737 -3.26795,0.95739 -5.357851,4.43279 -4.848272,8.06243 0.705336,5.02399 5.60722,7.28097 11.387374,5.24312 0.758466,-0.26741 1.415357,-0.48619 1.459758,-0.48619 0.0444,0 0.08073,0.9806 0.08073,2.17912 v 2.17912 l -0.916592,0.27604 c -1.786183,0.53793 -2.305745,0.6041 -5.194023,0.66154 -2.521617,0.0501 -3.086078,0.0207 -4.141639,-0.21579 z m 20.118589,-0.11071 c -0.132874,-0.2249 -7.87235,-21.26952 -7.933376,-21.57187 l -0.06461,-0.3201 2.833811,0.0381 2.833811,0.0382 2.476125,7.65316 c 1.361868,4.20924 2.574119,8.00311 2.693891,8.43084 0.119772,0.42772 0.284697,0.75452 0.366499,0.72621 0.0818,-0.0283 0.260812,-0.45997 0.397798,-0.95924 0.136986,-0.49928 1.340605,-4.26999 2.674709,-8.37937 l 2.425641,-7.4716 2.732225,-0.0382 c 2.024242,-0.0283 2.732228,0.005 2.732228,0.1276 0,0.16906 -7.800661,21.13593 -8.030723,21.58524 -0.114416,0.22346 -0.406618,0.24671 -3.10094,0.24671 -1.636041,0 -3.00273,-0.0476 -3.037088,-0.10573 z"
           style="fill:#2d1500;stroke-width:0.13835824" />
        <path
           inkscape:connector-curvature="0"
           id="path5825"
           d="m -114.75357,269.02974 v -36.15971 h 34.830506 34.830505 v 36.15971 36.15972 h -34.830505 -34.830506 z m 28.446606,31.65142 c 0.04522,-0.076 0.167287,-1.31276 0.271257,-2.74844 0.10397,-1.43567 0.226523,-2.67329 0.272341,-2.75025 0.07691,-0.1292 0.156391,-0.90943 0.481284,-4.72475 0.173377,-2.03602 0.530029,-4.42277 0.758365,-5.07505 0.173925,-0.49684 0.354222,-0.65832 1.516379,-1.3581 l 1.318985,-0.7942 0.08671,0.93518 c 0.04769,0.51435 0.02395,1.18893 -0.05275,1.49907 -0.197553,0.79883 -0.0063,3.59483 0.245916,3.59483 0.235865,0 0.363835,-0.25323 0.888051,-1.75726 0.344347,-0.98796 0.41428,-1.37599 0.367915,-2.04143 -0.05326,-0.76436 -0.04013,-0.81051 0.188415,-0.66233 0.391833,0.25404 0.643707,-0.0192 1.386965,-1.50465 l 0.682093,-1.3632 0.276007,0.3353 c 0.151804,0.18442 0.997858,0.72964 1.880121,1.2116 1.042991,0.56977 1.641739,0.98229 1.711677,1.17929 0.05916,0.16664 0.14731,0.76198 0.195887,1.32298 0.04858,0.561 0.211556,1.56869 0.362176,2.2393 0.246627,1.09808 0.26856,1.58533 0.220615,4.9009 -0.04594,3.17702 -0.0945,3.86513 -0.354296,5.02083 -0.44364,1.97353 -0.488302,2.47747 -0.228729,2.58088 0.535633,0.21339 4.674887,-1.23074 7.21608,-2.51758 4.827338,-2.44453 9.232729,-6.4865 12.351435,-11.3325 2.462365,-3.82615 4.160138,-8.54429 4.898357,-13.61263 0.276375,-1.89748 0.31497,-5.93795 0.07474,-7.82403 -1.259756,-9.89042 -6.173667,-18.12717 -14.056621,-23.56187 -5.650673,-3.89571 -12.987539,-5.84083 -19.624418,-5.20274 -6.235693,0.59951 -12.178559,3.05038 -16.912393,6.97476 -1.30783,1.08421 -3.8572,3.72004 -4.91595,5.0827 -3.49005,4.49182 -5.76597,9.92161 -6.64833,15.86131 -0.29192,1.9651 -0.32987,6.61776 -0.0696,8.5289 0.9999,7.34117 3.99026,13.63538 8.91282,18.75997 2.6028,2.70963 4.938712,4.51658 7.813209,6.04394 3.375444,1.79355 8.138173,3.34231 8.485264,2.75927 z m 5.57685,-18.50176 c -0.116262,-0.17232 -0.211386,-0.51035 -0.211386,-0.75118 0,-0.25519 -0.178269,-0.71728 -0.427291,-1.10758 -0.619334,-0.97071 -0.916888,-2.44215 -0.810296,-4.00702 0.07749,-1.13769 0.122651,-1.29194 0.513502,-1.75409 0.235696,-0.27868 0.4686,-0.63775 0.517566,-0.79791 0.07197,-0.23541 0.202036,-0.29121 0.678746,-0.29121 0.478936,0 0.713175,0.10153 1.24692,0.54048 0.921072,0.75747 0.996273,0.87931 1.161528,1.8818 0.231021,1.40145 0.19961,1.83954 -0.170529,2.37834 -0.275823,0.4015 -0.342124,0.68818 -0.381745,1.6506 l -0.04795,1.16471 -0.759959,0.70319 c -0.417976,0.38675 -0.835955,0.70319 -0.928839,0.70319 -0.09288,0 -0.264006,-0.141 -0.380269,-0.31332 z m -13.643731,-2.2328 c -2.950844,-0.66174 -5.26183,-2.30509 -6.629515,-4.71427 -0.72318,-1.27388 -1.0737,-2.38912 -1.26738,-4.03239 -0.77049,-6.53735 2.715482,-11.62027 8.962862,-13.0688 1.495975,-0.34686 6.392282,-0.30869 8.021051,0.0625 l 1.154228,0.26307 0.03746,2.23329 c 0.02964,1.76715 0.0014,2.21784 -0.135791,2.15921 -1.049744,-0.44893 -2.932604,-0.9675 -3.883762,-1.06967 -4.519682,-0.48544 -7.956393,1.80485 -8.782422,5.85279 -0.249624,1.22328 -0.250074,1.85128 -0.0022,3.06579 0.280651,1.37513 0.763306,2.37278 1.590526,3.2876 0.926168,1.02425 1.69406,1.52769 2.967119,1.94528 2.102165,0.68955 4.202034,0.60147 6.760581,-0.28357 0.771714,-0.26694 1.430238,-0.48536 1.463382,-0.48536 0.03314,0 0.04335,0.93552 0.02268,2.07892 l -0.03758,2.07892 -0.543166,0.18541 c -1.471474,0.50231 -2.371444,0.61487 -5.363762,0.67089 -2.69609,0.0505 -3.205683,0.0235 -4.334318,-0.22963 z m 19.953647,-1.15177 c -0.234555,-0.64114 -2.029511,-5.51121 -3.988792,-10.82239 l -3.562327,-9.65669 2.71172,-0.0382 c 1.965429,-0.0277 2.73886,0.007 2.810337,0.12741 0.08562,0.14382 4.995951,15.39138 5.259849,16.33288 0.143219,0.51095 0.5393,0.53956 0.636742,0.046 0.08414,-0.42618 5.198682,-16.41494 5.276822,-16.49606 0.02572,-0.0267 1.233075,-0.0313 2.683011,-0.0102 l 2.636248,0.0383 -4.026711,10.78448 -4.026709,10.78447 -2.991861,0.0379 -2.991863,0.0379 -0.426466,-1.1657 z"
           style="fill:#000000;stroke-width:0.13835824" />
      </g>
      <text
         xml:space="preserve"
         style="font-style:normal;font-weight:normal;font-size:10.58333302px;line-height:1;font-family:sans-serif;letter-spacing:0px;word-spacing:0px;fill:#000000;fill-opacity:1;stroke:none;stroke-width:0.26458332"
         x="-23.230551"
         y="262.23221"
         id="text555-0"><tspan
           sodipodi:role="line"
           id="tspan553-0"
           x="-23.230551"
           y="262.23221"
           style="font-style:normal;font-variant:normal;font-weight:normal;font-stretch:normal;font-size:17.63888931px;line-height:1.20000005;font-family:Consolas;-inkscape-font-specification:Consolas;fill:#ffffff;stroke-width:0.26458332">&lt;<tspan
   style="font-style:normal;font-variant:normal;font-weight:normal;font-stretch:normal;font-size:17.63888931px;line-height:1.20000005;font-family:Consolas;-inkscape-font-specification:Consolas;fill:#ff2a2a;stroke-width:0.26458332"
   id="tspan557-9">juanpablobidal /</tspan>&gt;</tspan><tspan
           sodipodi:role="line"
           x="-23.230551"
           y="277.45334"
           style="font-style:normal;font-variant:normal;font-weight:normal;font-stretch:normal;font-size:10.58333302px;line-height:1.20000005;font-family:Consolas;-inkscape-font-specification:Consolas;fill:#ffffff;stroke-width:0.26458332"
           id="tspan563-3">  Ing. en Sistemas de Información</tspan><tspan
           sodipodi:role="line"
           x="-23.230551"
           y="289.5676"
           style="font-style:italic;font-variant:normal;font-weight:normal;font-stretch:normal;font-size:8.81944466px;line-height:1.20000005;font-family:Consolas;-inkscape-font-specification:'Consolas Italic';fill:#ffffff;stroke-width:0.26458332"
           id="tspan577-4">  jpbidal@gmail.com</tspan></text>
      <rect
         y="222.60168"
         x="-43.505058"
         height="87.879463"
         width="11.339286"
         id="rect132"
         style="fill:#000000;stroke-width:0.26458332" />
    </g>
  </g>
</svg>
